<?xml version="1.0" encoding="UTF-8" standalone="no"?>
<svg
   xmlns:dc="http://purl.org/dc/elements/1.1/"
   xmlns:cc="http://creativecommons.org/ns#"
   xmlns:rdf="http://www.w3.org/1999/02/22-rdf-syntax-ns#"
   xmlns:svg="http://www.w3.org/2000/svg"
   xmlns="http://www.w3.org/2000/svg"
   xmlns:xlink="http://www.w3.org/1999/xlink"
   viewBox="0 0 2006.3113 1024.0001"
   height="1024.0001"
   width="2006.3112"
   id="svg2"
   version="1.1">
  <metadata
     id="metadata8">
    <rdf:RDF>
      <cc:Work
         rdf:about="">
        <dc:format>image/svg+xml</dc:format>
        <dc:type
           rdf:resource="http://purl.org/dc/dcmitype/StillImage" />
        <dc:title></dc:title>
        <dc:title />
      </cc:Work>
    </rdf:RDF>
  </metadata>
  <defs
     id="defs6" />
  <g
     transform="translate(0,-162.51454)"
     style="display:none;opacity:0.83899997"
     id="layer2">
    <image
       xlink:href="../base.png"
       y="0"
       x="0"
       id="image10"
       style="image-rendering:optimizeQuality"
       preserveAspectRatio="none"
       height="1489.4545"
       width="1489.4545" />
  </g>
  <g
     transform="translate(0,-162.51454)"
     style="display:inline;opacity:1"
     id="layer1">
    <g
       id="layer6">
      <rect
         y="162.51454"
         x="0"
         height="1024.0001"
         width="2006.3112"
         id="rect833"
         style="opacity:1;fill:#ffffef;fill-opacity:1;fill-rule:evenodd;stroke:none;stroke-width:18.89763832;stroke-linecap:square;stroke-linejoin:round;stroke-miterlimit:4;stroke-dasharray:none;stroke-opacity:1;paint-order:markers fill stroke" />
    </g>
    <g
       id="layer5">
      <rect
         y="392.2034"
         x="0"
         height="794.31122"
         width="2006.3112"
         id="rect894"
         style="opacity:1;fill:#539971;fill-opacity:1;fill-rule:evenodd;stroke:none;stroke-width:18.89764023;stroke-linecap:square;stroke-linejoin:round;stroke-miterlimit:4;stroke-dasharray:none;stroke-opacity:1;paint-order:markers fill stroke" />
    </g>
    <g
       style="display:inline"
       id="layer3">
      <path
         id="path890"
         d="M 297.48848,939.60086 1009.8511,189.30504 h 73.635 L 227.75838,1101.9325 v -87.0231 z"
         style="fill:#beaa7e;fill-opacity:0.99130435;stroke:none;stroke-width:1px;stroke-linecap:butt;stroke-linejoin:miter;stroke-opacity:1" />
    </g>
    <g
       style="display:inline;opacity:1"
       id="layer4">
      <path
         id="path13"
         d="m 502.21604,245.08911 c 0,0 14.50386,6.13625 21.19794,-9.48329 6.69409,-15.61954 10.59898,-20.08227 22.87148,-25.66068 12.27249,-5.5784 41.28021,-8.92545 61.92032,-2.7892 20.64011,6.13625 55.78408,27.3342 71.96146,16.17738 16.17738,-11.15681 34.58613,-26.21851 53.55271,-22.31363 18.96659,3.90489 65.82521,22.31363 72.5193,25.10284 6.69409,2.7892 32.91261,16.17738 39.04885,17.29306 6.13625,1.11568 16.17739,11.71466 7.80977,14.50386 -8.36761,2.7892 0,5.02057 1.67353,12.2725 1.67352,7.25193 4.46272,19.52442 -0.55784,21.75579 -5.02057,2.23136 -11.71466,-2.23137 -15.0617,10.04113 -3.34705,12.2725 -61.36249,92.04373 -108.22111,125.51417 -46.85863,33.47045 -90.37021,57.4576 -90.37021,57.4576 0,0 -23.42931,34.58613 -47.41646,26.77636 -23.98715,-7.80977 -90.92804,-266.64789 -90.92804,-266.64789 z"
         style="display:inline;opacity:1;fill:#5c638d;fill-opacity:1;stroke:none;stroke-width:1px;stroke-linecap:butt;stroke-linejoin:miter;stroke-opacity:1" />
      <path
         id="path823"
         d="m 594.25976,510.06347 c 0,0 -13.38818,44.06942 -26.77636,58.01544 -13.38817,13.94602 -29.00771,29.00772 -34.02828,39.6067 -5.02057,10.59897 -21.19795,55.78407 -42.3959,76.42418 -21.19795,20.64011 -78.65555,84.7918 -80.32907,95.94861 -1.67352,11.15682 -129.41906,145.0386 -129.41906,145.0386 0,0 -115.47303,-131.65042 -128.30337,-316.85355 -12.83034,-185.20313 132.7661,-299.00265 145.0386,-310.15947 12.27249,-11.15681 102.64271,-76.98203 204.16972,-52.99487 101.52701,23.98716 92.04372,264.97436 92.04372,264.97436 z"
         style="display:inline;opacity:1;fill:#5c638d;fill-opacity:1;stroke:none;stroke-width:1px;stroke-linecap:butt;stroke-linejoin:miter;stroke-opacity:1" />
      <path
         id="path826"
         d="m 586.44999,518.98893 c 0,0 41.28022,5.02056 52.99487,10.04113 11.71466,5.02057 34.58613,28.44988 45.74295,43.51158 11.15681,15.0617 20.08226,42.3959 6.13624,73.07714 -13.94602,30.68124 -32.35476,30.68124 -39.04885,28.44988 -6.69409,-2.23137 -11.71466,-13.38818 -9.48329,-26.77636 2.23136,-13.38818 13.38818,-29.00772 -20.08227,-39.04885 -33.47045,-10.04114 -74.75066,-19.52443 -83.11827,-25.10284 -8.36761,-5.5784 47.41646,-63.59384 46.85862,-64.15168 z"
         style="display:inline;opacity:1;fill:#5c638d;fill-opacity:1;stroke:none;stroke-width:1px;stroke-linecap:butt;stroke-linejoin:miter;stroke-opacity:1" />
      <path
         id="path828"
         d="m 352.15687,842.53657 c 0,0 14.50386,9.48329 21.19795,12.27249 6.69409,2.78921 1.67352,16.73523 22.87147,11.71466 21.19795,-5.02057 44.62726,0.55784 56.34192,3.34704 11.71465,2.78921 16.73522,-0.55784 22.31363,-6.69408 5.57841,-6.13625 5.57841,3.34704 8.92545,-2.23137 3.34705,-5.57841 -2.7892,-12.27249 -1.11568,-15.0617 1.67352,-2.7892 3.90488,-1.67352 5.57841,-5.57841 1.67352,-3.90488 -2.78921,-20.08226 -9.4833,-27.33419 -6.69409,-7.25193 -10.04113,-17.85091 -39.60669,-23.42931 -29.56556,-5.57841 -43.51158,-18.96659 -43.51158,-18.96659 z"
         style="display:inline;opacity:1;fill:#5c638d;fill-opacity:1;stroke:none;stroke-width:1px;stroke-linecap:butt;stroke-linejoin:miter;stroke-opacity:1" />
      <path
         id="path830"
         d="m 420.77128,753.28205 c 0,0 37.37533,17.01414 50.76351,3.06812 13.38818,-13.94602 41.28022,-40.44346 41.28022,-40.44346 0,0 8.39915,5.12869 11.752,6.50927 3.35285,1.38059 10.25577,0.59168 5.52234,-7.10015 -4.73344,-7.69183 -8.87519,-17.94761 3.55008,-17.75038 12.42526,0.19722 11.83358,2.76117 14.2003,2.36671 2.36672,-0.39445 9.26965,-0.59168 3.35285,-8.28351 -5.91679,-7.69183 -24.85054,-10.65023 -27.41448,-10.453 -2.56394,0.19722 -7.69183,8.87519 -8.67797,11.04468 -0.98613,2.16949 -1.57781,6.11402 -6.7057,5.71957 -5.12788,-0.39445 -20.906,-4.33898 -39.05084,1.97226 -18.14484,6.31125 -48.57231,53.34989 -48.57231,53.34989 z"
         style="display:inline;opacity:1;fill:#5c638d;fill-opacity:1;stroke:none;stroke-width:1px;stroke-linecap:butt;stroke-linejoin:miter;stroke-opacity:1" />
      <path
         id="path832"
         d="m 578.96768,727.12139 -32.70576,35.5288 c 0,0 11.04468,2.16949 30.37288,-7.10016 19.3282,-9.26964 16.3698,-10.05855 18.14484,-15.18644 1.77504,-5.12788 4.14175,-7.10015 6.7057,-8.48073 2.56394,-1.38059 1.38058,-3.55008 0,-5.32512 -1.38059,-1.77504 4.93066,-2.56394 6.31125,-3.55008 1.38058,-0.98613 0.39445,-1.18336 -1.38059,-4.33898 -1.77504,-3.15562 3.15562,-2.36672 3.35285,-4.14176 0.19723,-1.77503 -5.91679,-8.28351 -14.98921,-9.46687 -9.07242,-1.18336 -13.21418,1.97227 -9.46687,5.12789 3.7473,3.15563 0,1.18336 -4.14176,1.77504 -4.14176,0.59168 -8.48074,3.15562 -3.94453,5.91679 4.53621,2.76118 -2.16949,2.56395 -5.52234,3.15563 -3.35285,0.59168 -18.53929,9.46687 -2.56395,8.67796 15.97535,-0.7889 9.82749,-2.59197 9.82749,-2.59197 z"
         style="display:inline;opacity:1;fill:#5c638d;fill-opacity:1;stroke:none;stroke-width:1px;stroke-linecap:butt;stroke-linejoin:miter;stroke-opacity:1" />
      <path
         id="path834"
         d="m 281.31109,925.097 16.17739,14.50386 80.88691,-85.34964 -26.21852,-11.71465 z"
         style="display:inline;opacity:1;fill:#5c638d;fill-opacity:1;stroke:none;stroke-width:1px;stroke-linecap:butt;stroke-linejoin:miter;stroke-opacity:1" />
      <path
         id="path837"
         d="m 421.32913,894.41576 c 0,0 39.60669,52.99487 75.3085,69.73009 35.70181,16.73523 49.64783,18.96659 49.64783,18.96659 0,0 -55.22624,-27.3342 -39.04886,-100.96918 16.17738,-73.63498 79.77123,-92.04372 107.10543,-93.15941 27.3342,-1.11568 85.90748,11.15682 110.45247,57.4576 24.54499,46.30079 19.52443,113.79952 -17.8509,154.52185 -37.37534,40.7224 -104.31623,79.2134 -186.87666,60.8047 -82.56043,-18.4088 -176.27768,-84.23397 -176.27768,-84.23397 z"
         style="display:inline;opacity:1;fill:#5c638d;fill-opacity:1;stroke:none;stroke-width:1px;stroke-linecap:butt;stroke-linejoin:miter;stroke-opacity:1" />
      <path
         id="path839"
         d="m 343.78926,977.53403 c 0,0 45.1851,59.13117 157.86894,79.77127 112.68383,20.6401 -157.86894,-79.77127 -157.86894,-79.77127 z"
         style="display:inline;opacity:1;fill:#5c638d;fill-opacity:1;stroke:none;stroke-width:1px;stroke-linecap:butt;stroke-linejoin:miter;stroke-opacity:1" />
      <ellipse
         ry="8.3676119"
         rx="12.272497"
         cy="910.59314"
         cx="631.63507"
         id="path841"
         style="display:inline;opacity:1;fill:#5c638d;fill-opacity:1;fill-rule:evenodd;stroke:none;stroke-width:18.89763832;stroke-linecap:square;stroke-linejoin:round;stroke-miterlimit:4;stroke-dasharray:none;stroke-opacity:1;paint-order:markers fill stroke" />
      <ellipse
         ry="44.348339"
         rx="46.579704"
         cy="282.18552"
         cx="697.1814"
         id="path851"
         style="display:inline;opacity:0.32000002;fill:#ffffff;fill-opacity:1;fill-rule:evenodd;stroke:none;stroke-width:18.89763832;stroke-linecap:square;stroke-linejoin:round;stroke-miterlimit:4;stroke-dasharray:none;stroke-opacity:1;paint-order:markers fill stroke" />
      <ellipse
         ry="43.790501"
         rx="45.464024"
         cy="283.58014"
         cx="698.57599"
         id="path851-3"
         style="display:inline;opacity:1;fill:#5c638d;fill-opacity:1;fill-rule:evenodd;stroke:none;stroke-width:18.89763832;stroke-linecap:square;stroke-linejoin:round;stroke-miterlimit:4;stroke-dasharray:none;stroke-opacity:1;paint-order:markers fill stroke" />
      <circle
         r="5.8573279"
         cy="296.68939"
         cx="684.35107"
         id="path870"
         style="display:inline;opacity:0.76499999;fill:#ffffff;fill-opacity:1;fill-rule:evenodd;stroke:none;stroke-width:18.89763832;stroke-linecap:square;stroke-linejoin:round;stroke-miterlimit:4;stroke-dasharray:none;stroke-opacity:1;paint-order:markers fill stroke" />
    </g>
  </g>
</svg>
