<?xml version="1.0" encoding="UTF-8" standalone="no"?>
<!-- Created with Inkscape (http://www.inkscape.org/) -->

<svg
   xmlns:dc="http://purl.org/dc/elements/1.1/"
   xmlns:cc="http://creativecommons.org/ns#"
   xmlns:rdf="http://www.w3.org/1999/02/22-rdf-syntax-ns#"
   xmlns:svg="http://www.w3.org/2000/svg"
   xmlns="http://www.w3.org/2000/svg"
   xmlns:xlink="http://www.w3.org/1999/xlink"
   xmlns:sodipodi="http://sodipodi.sourceforge.net/DTD/sodipodi-0.dtd"
   xmlns:inkscape="http://www.inkscape.org/namespaces/inkscape"
   version="1.1"
   id="svg2"
   width="2000.3112"
   height="1030.3112"
   viewBox="0 0 2000.3112 1030.3112"
   sodipodi:docname="logo-full.svg"
   inkscape:version="0.92.3 (2405546, 2018-03-11)"
   inkscape:export-filename="/home/lubeso/Documents/personal/pic/cameleon/cameleon-logo-full.png"
   inkscape:export-xdpi="96"
   inkscape:export-ydpi="96"
   style="enable-background:new">
  <metadata
     id="metadata8">
    <rdf:RDF>
      <cc:Work
         rdf:about="">
        <dc:format>image/svg+xml</dc:format>
        <dc:type
           rdf:resource="http://purl.org/dc/dcmitype/StillImage" />
        <dc:title></dc:title>
      </cc:Work>
    </rdf:RDF>
  </metadata>
  <defs
     id="defs6" />
  <sodipodi:namedview
     pagecolor="#000029"
     bordercolor="#666666"
     borderopacity="1"
     objecttolerance="10"
     gridtolerance="10"
     guidetolerance="10"
     inkscape:pageopacity="0"
     inkscape:pageshadow="2"
     inkscape:window-width="1920"
     inkscape:window-height="1023"
     id="namedview4"
     showgrid="false"
     inkscape:zoom="0.5"
     inkscape:cx="574.52609"
     inkscape:cy="513.27536"
     inkscape:window-x="0"
     inkscape:window-y="25"
     inkscape:window-maximized="1"
     inkscape:current-layer="layer4"
     showguides="true"
     inkscape:guide-bbox="true" />
  <g
     inkscape:groupmode="layer"
     id="layer2"
     inkscape:label="stroke"
     style="display:none;opacity:0.83899997"
     sodipodi:insensitive="true"
     transform="translate(0,-156.20338)">
    <image
       sodipodi:absref="/home/lubeso/Documents/personal/pic/cameleon/svg/base.png"
       xlink:href="base.png"
       width="1489.4545"
       height="1489.4545"
       preserveAspectRatio="none"
       style="image-rendering:optimizeQuality"
       id="image10"
       x="0"
       y="0" />
  </g>
  <g
     inkscape:groupmode="layer"
     id="layer1"
     inkscape:label="fill"
     style="display:inline;opacity:1"
     transform="translate(0,-156.20338)">
    <g
       inkscape:groupmode="layer"
       id="layer5"
       inkscape:label="background"
       sodipodi:insensitive="true"
       style="display:none">
      <rect
         style="opacity:1;fill:#539971;fill-opacity:1;fill-rule:evenodd;stroke:none;stroke-width:18.89763832;stroke-linecap:square;stroke-linejoin:round;stroke-miterlimit:4;stroke-dasharray:none;stroke-opacity:1;paint-order:markers fill stroke"
         id="rect894"
         width="1030.3112"
         height="1030.3112"
         x="0"
         y="156.20338" />
    </g>
    <g
       inkscape:groupmode="layer"
       id="layer3"
       inkscape:label="branch"
       style="display:inline">
      <path
         style="fill:#ffffcc;fill-opacity:0.99944258;stroke:none;stroke-width:1px;stroke-linecap:butt;stroke-linejoin:miter;stroke-opacity:1"
         d="M 173.48848,955.60086 885.85113,205.30504 h 73.63498 L 103.75838,1117.9325 v -87.0231 z"
         id="path890"
         inkscape:connector-curvature="0" />
    </g>
    <g
       inkscape:groupmode="layer"
       id="layer4"
       inkscape:label="cameleon"
       style="display:inline;opacity:1">
      <path
         style="display:inline;opacity:1;fill:#ffffcc;fill-opacity:0.99944258;stroke:none;stroke-width:1px;stroke-linecap:butt;stroke-linejoin:miter;stroke-opacity:1"
         d="M 602.63672 60.197266 C 586.18587 60.616739 570.32318 73.368651 556.16797 83.130859 C 539.99059 94.287679 504.84519 73.089375 484.20508 66.953125 C 463.56497 60.816875 434.55765 64.163787 422.28516 69.742188 C 410.01266 75.320598 406.10815 79.782804 399.41406 95.402344 C 394.77436 106.22833 386.39135 106.60025 381.67773 105.81055 C 380.53704 105.47718 379.38679 105.16119 378.2168 104.88477 C 276.68979 80.897602 186.31937 146.72405 174.04688 157.88086 C 161.77437 169.03768 16.177476 282.83789 29.007812 468.04102 C 41.83815 653.24415 157.31055 784.89453 157.31055 784.89453 L 173.48828 799.39844 L 254.375 714.04688 L 232.61719 704.32617 C 260.66483 673.63643 285.99154 644.7817 286.73047 639.85547 C 287.20897 636.66548 292.2881 629.10795 299.74414 619.50195 C 175.05741 611.89442 52.658203 526.358 52.658203 395.09375 C 52.658203 242.7976 180.21557 137.6582 332.51172 137.6582 C 391.26556 137.6582 460.84229 167.03587 478.62305 168.58203 C 496.40382 170.12818 501.81445 211.09991 501.81445 253.61914 C 501.81445 266.76144 496.40423 275.26562 487.90039 275.26562 C 476.30423 275.26562 467.02656 259.03173 456.97656 226.5625 C 446.15348 192.54712 371.93729 172.44727 317.04883 172.44727 C 217.32191 172.44727 139.24219 255.93844 139.24219 362.62305 C 139.24219 480.90382 226.6003 586.04297 349.51953 586.04297 C 361.67947 586.04297 372.37546 584.7301 381.92578 582.29492 C 385.85729 578.52591 388.81445 575.70312 388.81445 575.70312 C 388.81445 575.70312 391.02158 577.047 393.62109 578.54492 C 397.61229 576.98741 401.38951 575.20746 404.97852 573.22266 C 400.80441 565.84498 398.20692 557.17987 409.63867 557.36133 C 421.87261 557.55551 421.49395 560.03819 423.73828 559.73828 C 425.57084 558.08799 427.356 556.37359 429.10156 554.60156 C 428.74175 553.71756 428.1495 552.68829 427.19336 551.44531 C 421.27657 543.75348 402.34128 540.79496 399.77734 540.99219 C 397.2134 541.18941 392.08575 549.86762 391.09961 552.03711 C 390.11348 554.2066 389.52242 558.15031 384.39453 557.75586 C 380.08759 557.42456 368.25721 554.61314 353.83203 557.45312 C 358.94344 552.05349 363.53116 547.34086 367.05859 543.90625 C 388.25654 523.26614 404.43451 478.08139 409.45508 467.48242 C 412.19703 461.69386 418.13862 454.55964 425.11328 447.01758 C 441.14555 452.54865 471.83273 460.01316 498.01562 467.83789 C 498.74225 467.78626 499.49433 467.76172 500.26953 467.76172 C 502.6035 467.76172 504.93593 468.86547 506.9375 470.98438 C 530.17734 480.97129 520.81465 494.94803 518.79102 507.08984 C 516.55965 520.47802 521.5813 531.63386 528.27539 533.86523 C 534.96948 536.09659 553.3782 536.09726 567.32422 505.41602 C 581.27024 474.73478 572.34431 447.39959 561.1875 432.33789 C 550.03068 417.27619 527.15997 393.84674 515.44531 388.82617 C 505.78947 384.68795 477.26931 380.71931 467.11328 379.39258 C 468.24672 376.09431 469.17244 373.311 469.68555 371.69531 C 493.48249 378.81709 516.56055 344.75781 516.56055 344.75781 C 516.56055 344.75781 560.07301 320.76928 606.93164 287.29883 C 653.79026 253.82839 711.80529 174.05766 715.15234 161.78516 C 718.49938 149.51266 725.19232 153.9755 730.21289 151.74414 C 735.23345 149.51277 732.445 137.24021 730.77148 129.98828 C 729.09795 122.73635 720.73005 120.506 729.09766 117.7168 C 737.46528 114.9276 727.42531 104.32857 721.28906 103.21289 C 715.15282 102.09721 688.93237 88.709122 682.23828 85.919922 C 675.54419 83.130712 628.68729 64.721296 609.7207 60.816406 C 607.34988 60.328296 604.98684 60.137341 602.63672 60.197266 z M 343.39258 619.18164 C 334.74942 619.7438 326.26214 620.04681 318.14844 620.05469 C 326.92923 621.95047 336.59693 622.64992 343.39258 619.18164 z "
         transform="translate(0,156.20338)"
         id="path13" />
      <path
         style="display:inline;opacity:1;fill:#ffffcc;fill-opacity:0.99944258;stroke:none;stroke-width:1px;stroke-linecap:butt;stroke-linejoin:miter;stroke-opacity:1"
         d="m 228.15687,858.53657 c 0,0 14.50386,9.48329 21.19795,12.27249 6.69409,2.78921 1.67352,16.73523 22.87147,11.71466 21.19795,-5.02057 44.62726,0.55784 56.34192,3.34704 11.71465,2.78921 16.73522,-0.55784 22.31363,-6.69408 5.57841,-6.13625 5.57841,3.34704 8.92545,-2.23137 3.34705,-5.57841 -2.7892,-12.27249 -1.11568,-15.0617 1.67352,-2.7892 3.90488,-1.67352 5.57841,-5.57841 1.67352,-3.90488 -2.78921,-20.08226 -9.4833,-27.33419 -6.69409,-7.25193 -10.04113,-17.85091 -39.60669,-23.42931 -29.56556,-5.57841 -43.51158,-18.96659 -43.51158,-18.96659 z"
         id="path828"
         inkscape:connector-curvature="0" />
      <path
         style="display:inline;opacity:1;fill:#ffffcc;fill-opacity:0.99944258;stroke:none;stroke-width:1px;stroke-linecap:butt;stroke-linejoin:miter;stroke-opacity:1"
         d="m 454.96768,743.12139 -32.70576,35.5288 c 0,0 11.04468,2.16949 30.37288,-7.10016 19.3282,-9.26964 16.3698,-10.05855 18.14484,-15.18644 1.77504,-5.12788 4.14175,-7.10015 6.7057,-8.48073 2.56394,-1.38059 1.38058,-3.55008 0,-5.32512 -1.38059,-1.77504 4.93066,-2.56394 6.31125,-3.55008 1.38058,-0.98613 0.39445,-1.18336 -1.38059,-4.33898 -1.77504,-3.15562 3.15562,-2.36672 3.35285,-4.14176 0.19723,-1.77503 -5.91679,-8.28351 -14.98921,-9.46687 -9.07242,-1.18336 -13.21418,1.97227 -9.46687,5.12789 3.7473,3.15563 0,1.18336 -4.14176,1.77504 -4.14176,0.59168 -8.48074,3.15562 -3.94453,5.91679 4.53621,2.76118 -2.16949,2.56395 -5.52234,3.15563 -3.35285,0.59168 -18.53929,9.46687 -2.56395,8.67796 15.97535,-0.7889 9.82749,-2.59197 9.82749,-2.59197 z"
         id="path832"
         inkscape:connector-curvature="0"
         sodipodi:nodetypes="ccsscccssscscssc" />
      <path
         style="display:inline;opacity:1;fill:#ffffcc;fill-opacity:0.99944258;stroke:none;stroke-width:1px;stroke-linecap:butt;stroke-linejoin:miter;stroke-opacity:1"
         d="M 492.99414 648.71484 C 492.08092 648.72284 491.19599 648.74645 490.3418 648.78125 C 463.0076 649.89694 399.41371 668.30447 383.23633 741.93945 C 367.05895 815.57443 422.28516 842.9082 422.28516 842.9082 C 422.28516 842.9082 408.33853 840.67859 372.63672 823.94336 C 336.93491 807.20814 297.33008 754.21289 297.33008 754.21289 L 219.78906 837.33008 C 219.78906 837.33008 313.50598 903.15565 396.06641 921.56445 C 478.62684 939.97315 545.56802 901.48217 582.94336 860.75977 C 620.31869 820.03744 625.33991 752.53907 600.79492 706.23828 C 577.01696 661.3844 521.30383 648.46417 492.99414 648.71484 z "
         transform="translate(0,156.20338)"
         id="path837" />
      <path
         style="display:inline;opacity:1;fill:#ffffcc;fill-opacity:0.99944258;stroke:none;stroke-width:1px;stroke-linecap:butt;stroke-linejoin:miter;stroke-opacity:1"
         d="m 219.78926,993.53403 c 0,0 45.1851,59.13117 157.86894,79.77127 112.68383,20.6401 -157.86894,-79.77127 -157.86894,-79.77127 z"
         id="path839"
         inkscape:connector-curvature="0"
         sodipodi:nodetypes="csc" />
      <ellipse
         style="display:inline;opacity:0.32000002;fill:#ffffcc;fill-opacity:0.99944258;fill-rule:evenodd;stroke:none;stroke-width:18.89763832;stroke-linecap:square;stroke-linejoin:round;stroke-miterlimit:4;stroke-dasharray:none;stroke-opacity:1;paint-order:markers fill stroke"
         id="path851"
         cx="573.1814"
         cy="298.18552"
         rx="46.579704"
         ry="44.348339" />
      <ellipse
         style="display:inline;opacity:1;fill:#ffffcc;fill-opacity:0.99944258;fill-rule:evenodd;stroke:none;stroke-width:18.89763832;stroke-linecap:square;stroke-linejoin:round;stroke-miterlimit:4;stroke-dasharray:none;stroke-opacity:1;paint-order:markers fill stroke"
         id="path851-3"
         cx="574.57599"
         cy="299.58014"
         rx="45.464024"
         ry="43.790501" />
      <circle
         style="display:inline;opacity:0.76499999;fill:#ffffcc;fill-opacity:0.99944258;fill-rule:evenodd;stroke:none;stroke-width:18.89763832;stroke-linecap:square;stroke-linejoin:round;stroke-miterlimit:4;stroke-dasharray:none;stroke-opacity:1;paint-order:markers fill stroke"
         id="path870"
         cx="560.35107"
         cy="312.68939"
         r="5.8573279" />
    </g>
  </g>
  <g
     inkscape:groupmode="layer"
     id="layer8"
     inkscape:label="text"
     transform="translate(0,-156.20338)">
    <text
       xml:space="preserve"
       style="font-style:normal;font-variant:normal;font-weight:normal;font-stretch:normal;font-size:96px;line-height:1.25;font-family:'EB Garamond';-inkscape-font-specification:'EB Garamond';letter-spacing:0px;word-spacing:0px;fill:#ffffcc;fill-opacity:0.99944258;stroke:none;"
       x="554.30347"
       y="720.15961"
       id="text977"><tspan
         sodipodi:role="line"
         id="tspan975"
         x="554.30347"
         y="720.15961"
         style="font-size:266.66665649px;fill:#ffffcc;fill-opacity:0.99944258;">AMÉLÉON</tspan></text>
    <g
       aria-label="C"
       style="font-style:normal;font-weight:normal;font-size:278.30770874px;line-height:1.25;font-family:sans-serif;letter-spacing:0px;word-spacing:0px;opacity:1;fill:#ffffcc;fill-opacity:0.99944258;stroke:none;stroke-width:1"
       id="text1001" />
  </g>
</svg>
