<?xml version="1.0" encoding="UTF-8" standalone="no"?>
<svg
   xmlns:dc="http://purl.org/dc/elements/1.1/"
   xmlns:cc="http://creativecommons.org/ns#"
   xmlns:rdf="http://www.w3.org/1999/02/22-rdf-syntax-ns#"
   xmlns:svg="http://www.w3.org/2000/svg"
   xmlns="http://www.w3.org/2000/svg"
   xmlns:xlink="http://www.w3.org/1999/xlink"
   width="107.25919"
   height="110.71246"
   viewBox="0 0 28.378992 29.292671"
   version="1.1"
   id="svg8">
  <defs
     id="defs2">
    <clipPath
       clipPathUnits="userSpaceOnUse"
       id="clipPath1022">
      <path
         style="fill:none;stroke:#000000;stroke-width:0.26458332px;stroke-linecap:butt;stroke-linejoin:miter;stroke-opacity:1"
         d="m 81.383571,221.42951 c 0,0 -0.7684,-1.36976 -0.801809,-3.97564 -0.03341,-2.60588 -0.200451,-2.50565 -0.23386,-3.30746 -0.03341,-0.80181 1.135896,-3.842 1.135896,-3.842 l 1.670434,-4.54358 c 0,0 0.367495,-1.83748 1.069078,-3.30746 0.701582,-1.46998 1.102487,-3.47451 1.23612,-4.14268 0.133633,-0.66817 2.305198,-8.68626 6.815373,-17.47274 4.510172,-8.78649 3.908819,-9.48807 4.276312,-9.95579 0.367498,-0.46772 0.467725,-0.80181 0.701585,-1.00227 0.23386,-0.20045 0.534538,-1.10248 1.369756,-1.50338 0.835218,-0.40091 6.314244,-4.94449 6.681734,-5.21176 0.3675,-0.26727 1.06908,-1.1359 1.9043,-1.5368 0.83522,-0.40091 2.43883,-1.43658 3.14041,-1.5368 0.70159,-0.10023 1.83748,0.0334 1.83748,0.0334 l -0.20045,-1.13589 c 0,0 0.0668,-0.25057 1.5368,-0.46773 1.46996,-0.21716 1.46996,-0.21716 1.46996,-0.21716 0,0 2.53908,-0.11693 3.00681,-0.95214 0.46772,-0.83522 1.36975,-7.55037 1.30293,-9.18739 -0.0668,-1.63703 -0.4009,-3.30746 0.3675,-5.41221 0.7684,-2.10475 1.33635,-2.60588 1.43657,-5.17835 0.10023,-2.57247 -0.66817,-2.60587 0.23387,-5.24516 0.90203,-2.63929 2.13815,-7.24969 2.53906,-10.69078 0.4009,-3.4411 2.20497,-14.09847 5.11152,-17.97388 2.90656,-3.875406 6.54811,-7.049231 9.9892,-7.116049 3.4411,-0.06682 4.9779,0.434313 4.9779,0.434313 0,0 3.30746,-2.672696 9.92238,2.03793 6.61492,4.710626 8.8533,10.456916 9.18739,11.258726 0.33409,0.80181 1.90429,6.64833 1.97111,7.684 0.0668,1.03567 0.66818,9.68852 0.7684,10.62396 0.10023,0.93545 -0.26727,3.4411 -1.23612,6.74856 -0.96885,3.30746 -1.57021,6.24742 -1.33635,7.91786 0.23386,1.67043 0.56795,4.57699 1.83748,5.94675 1.26953,1.36975 5.64607,3.00678 9.05376,3.60814 3.40768,0.60135 6.48128,2.90655 7.65059,4.2429 1.1693,1.33635 3.37427,4.10927 3.64154,4.77744 0.26727,0.66818 0.3675,2.13816 1.43658,3.20724 1.06907,1.06907 2.67269,1.83747 5.07812,6.949 2.40542,5.11153 4.6104,8.4524 5.44562,9.5883 0.83521,1.13589 1.20271,0.73499 2.23838,4.74403 1.03567,4.00904 3.87541,13.36348 3.87541,13.36348 0,0 1.26952,4.57699 0.70158,9.45466 -0.56795,4.87767 1.67043,5.71288 1.83748,6.08038 0.16704,0.36749 1.63702,1.23612 2.43883,3.27405 0.80181,2.03793 0.93544,2.90656 0.93544,2.90656 z"
         id="path1024" />
    </clipPath>
    <clipPath
       clipPathUnits="userSpaceOnUse"
       id="clipPath1303">
      <path
         style="fill:none;stroke:#000000;stroke-width:0.26458332px;stroke-linecap:butt;stroke-linejoin:miter;stroke-opacity:1"
         d="m 125.67708,126.35057 c 0,0 0.60133,0.88996 0.84186,1.10644 0.24053,0.21647 0.72159,0.8178 0.93807,2.54962 0.21647,1.73182 2.02045,8.32235 2.09261,8.61098 0.0722,0.28864 0.3608,0.8178 0.52917,0.84186 0.16837,0.024 0.36079,0.31269 0.55322,0.8178 0.19242,0.50511 0.50511,0.57727 1.2267,0.48106 0.72159,-0.0962 1.20265,0.86591 1.51534,0.96212 0.31269,0.0962 0.7697,0.24053 1.5875,0.28864 0.8178,0.0481 2.66989,0.88996 3.77633,1.15454 1.10644,0.26459 2.52556,0.86591 3.82443,1.65966 1.29886,0.79375 1.49129,0.72159 1.9964,0.86591 0.50511,0.14432 1.73182,0.93807 2.09261,1.01023 0.3608,0.0722 1.25076,0.19242 1.9964,0.45701 0.74565,0.26458 1.73182,0.26458 2.91042,0.74564 1.1786,0.48106 2.7661,1.41913 3.15095,1.65966 0.38485,0.24053 1.29886,0.43295 3.10284,0.57727 1.80398,0.14432 6.03731,2.16477 7.48049,3.5358 1.44318,1.37102 3.51174,2.66988 3.9928,3.19905 0.48106,0.52917 2.74205,3.75227 3.65606,5.62841 0.91402,1.87614 2.06857,4.78655 2.18883,6.73485 0.12027,1.94829 0.60133,2.09261 0.79375,2.66988 0.19242,0.57728 1.01023,2.33315 1.01023,4.13713 0,1.80397 0.12026,1.82803 0.48106,3.36742 0.36079,1.53939 1.27481,3.9447 1.2267,4.44981 -0.0481,0.50511 0.52917,0.98617 0.67349,1.37102 0.14432,0.38485 0.16837,2.42936 1.08238,3.27121 0.91402,0.84186 2.3572,3.03069 2.57368,3.68012 0.21648,0.64943 1.9964,2.86231 1.9964,2.86231 H 88.27462 l -0.625377,-15.82689 c 0,0 0.04811,-2.59773 -0.04811,-3.46364 -0.09621,-0.86591 -0.07216,-1.61155 -0.04811,-1.9483 0.02405,-0.33674 -0.192423,-0.96212 -0.04811,-1.32291 0.14432,-0.3608 0.02405,-0.55322 0.02405,-0.84186 0,-0.28864 0.192426,-0.60133 0.144322,-1.03428 -0.04811,-0.43295 -0.07216,-0.79375 0,-1.29886 0.07216,-0.50512 -0.192426,-0.52917 -0.07216,-0.91402 0.120267,-0.38485 0.21648,-2.06856 0.09621,-2.30909 -0.120267,-0.24053 -0.14432,-1.13049 0.02405,-1.70776 0.168371,-0.57728 0.09621,-9.09205 0.09621,-9.09205 0,0 2.405303,-0.88996 2.62178,-1.27481 0.216477,-0.38485 0.38485,-0.26458 -0.529167,-0.91402 -0.914013,-0.64943 -2.47746,-2.28503 -3.5839,-4.08901 -1.10644,-1.80398 -0.93807,-1.77992 -0.79375,-1.97235 0.144317,-0.19242 2.405303,-2.16477 4.06496,-4.28144 1.65966,-2.11666 2.14072,-3.175 2.14072,-3.41553 0,-0.24053 2.092614,-3.87254 2.236933,-4.25738 0.144317,-0.38485 -0.408903,-2.93447 -0.48106,-3.70417 -0.07216,-0.7697 -0.07216,-0.79375 -0.07216,-0.79375 0,0 -3.535796,-4.16117 -3.800379,-7.09564 -0.264584,-2.93447 -0.889961,-9.83769 -1.010227,-10.19849 -0.120264,-0.36079 -0.192424,-4.30549 -0.216477,-4.93087 -0.02405,-0.62538 -0.432954,-12.7 -0.360796,-13.301326 0.07217,-0.601324 0.04811,-5.099243 0.120271,-5.435984 0.07216,-0.336743 0.02405,-2.47746 -0.09621,-3.247162 -0.120264,-0.769694 -0.16837,-0.577268 0.07216,-1.226701 0.24053,-0.649433 0.04811,-3.680116 0.09621,-4.20928 0.0481,-0.529167 2.357197,-1.058336 3.078787,-1.226704 0.72159,-0.168373 0.769697,-4.064963 1.322917,-4.642236 0.55322,-0.577273 2.93447,-2.79015 3.872537,-3.295264 0.938069,-0.505113 1.250759,-1.202653 1.90019,-1.130493 0.649433,0.07216 1.27481,1.250757 1.683716,1.154546 0.4089,-0.09621 0.84186,-1.731819 1.97235,-1.948296 1.13049,-0.216477 2.33314,0.384847 2.45341,-0.841857 0.12026,-1.226703 1.05833,-2.54962 2.52556,-2.573673 1.46724,-0.02405 2.42936,0.601326 3.41553,0.4089 0.98618,-0.192423 1.41913,-0.432953 2.14072,0.04811 0.7216,0.481061 0.98618,0.408903 1.87614,0.360797 0.88996,-0.04811 1.10644,0.79375 1.63561,0.938067 0.52916,0.144319 1.29886,0.938069 3.24716,1.03428 1.94829,0.09621 2.26098,0.577273 2.33314,0.93807 0.0722,0.360793 -0.21648,1.226703 0.8178,1.322916 1.03428,0.09621 3.55985,0.817803 4.54602,2.982574 0.98618,2.164773 1.15455,1.948296 1.37103,1.97235 0.21647,0.02405 0.43295,0.673483 0.43295,0.96212 0,0.288637 0.72159,0.24053 1.08239,0.55322 0.36079,0.31269 -0.38485,0.889963 -0.38485,0.889963 0,0 -0.19242,1.10644 1.56345,1.539393 1.75587,0.432954 2.26098,0.817804 2.16477,1.491287 -0.0962,0.673487 -0.72159,1.130493 0.36079,1.996403 1.08239,0.86591 2.54963,2.092614 2.69394,4.473864 0.14432,2.38125 0.14432,2.742046 0.31269,2.79015 0.16837,0.04811 0.16837,1.443183 -0.21647,1.779926 -0.38485,0.336741 -0.69754,0.31269 -0.40891,0.841857 0.28864,0.529166 0.57728,2.044507 0.12027,2.525567 -0.45701,0.48106 -0.31269,1.130493 -0.14432,1.395076 0.16837,0.264584 -1.61155,8.85151 -2.7661,10.65549 -1.15454,1.80398 -1.80397,3.2231 -1.80397,3.2231 0,0 1.15454,-1.94829 2.47746,-1.51534 1.32291,0.43296 -0.0481,3.05474 -0.12027,3.55985 -0.0722,0.50512 -1.1786,3.63201 -1.27481,3.87254 -0.0962,0.24053 -0.43295,1.41913 -0.4089,1.77992 0.024,0.3608 -0.21648,1.01023 -0.43295,1.29887 -0.21648,0.28863 -1.87614,2.88636 -2.62178,3.03068 -0.74565,0.14432 -1.85209,0.0962 -1.92425,-0.0962 -0.0722,-0.19243 -0.21647,-0.21648 -0.21647,-0.21648 z"
         id="path1305" />
    </clipPath>
    <clipPath
       clipPathUnits="userSpaceOnUse"
       id="clipPath995">
      <g
         id="use997">
        <image
           transform="translate(-166.63939,-31.942424)"
           y="38.943359"
           x="66.282776"
           id="image1031"
           style="display:inline;opacity:1;stroke-width:1.62731254;image-rendering:optimizeQuality"
           preserveAspectRatio="none"
           height="156.08556"
           width="156.08556"
           clip-path="url(#clipPath1303)"
           xlink:href="file:///home/lubeso/Documents/lubeso.github.io/pages/lk/img/luis-face.JPG" />
        <path
           id="path1033"
           d="M 36.984751,85.043716 A 59.298588,59.298588 0 0 1 -22.313837,144.3423 59.298588,59.298588 0 0 1 -81.612425,85.043716 59.298588,59.298588 0 0 1 -22.313837,25.745129 59.298588,59.298588 0 0 1 36.984751,85.043716 Z"
           style="display:inline;opacity:1;fill:none;fill-opacity:0.59574465;fill-rule:evenodd;stroke:#000000;stroke-width:3.7650001;stroke-linecap:square;stroke-linejoin:round;stroke-miterlimit:4;stroke-dasharray:none;stroke-opacity:0.23404254;paint-order:markers fill stroke" />
        <path
           id="path1035"
           d="M -77.548387,181.45839 V -1.0270094 H -108.67592 V 182.65973 Z"
           style="display:inline;fill:#e8c3df;fill-opacity:1;stroke:none;stroke-width:0.26458332px;stroke-linecap:butt;stroke-linejoin:miter;stroke-opacity:1" />
      </g>
    </clipPath>
    <clipPath
       clipPathUnits="userSpaceOnUse"
       id="clipPath1170">
      <g
         transform="translate(1.5814526e-6,1.1486494e-5)"
         id="use1172"
         style="stroke-width:2.48396587">
        <image
           transform="matrix(1.4774633,0,0,1.4774633,-44.739835,-79.916002)"
           clip-path="url(#clipPath1022)"
           width="239.48569"
           height="239.48569"
           preserveAspectRatio="none"
           style="display:inline;opacity:1;fill:#8a408f;fill-opacity:1;stroke-width:3.80401087;image-rendering:optimizeQuality"
           id="image1344"
           x="12.235698"
           y="36.366966"
           xlink:href="file:///home/lubeso/Documents/lubeso.github.io/pages/lk/img/karyn-face.JPG" />
        <path
           id="path1346"
           d="m 187.41462,65.825693 a 66.817383,66.817383 0 0 0 -94.134813,8.235735 66.817383,66.817383 0 0 0 8.236063,94.134412 66.817383,66.817383 0 0 0 94.13448,-8.23533 66.817383,66.817383 0 0 0 -8.23573,-94.134817 z"
           style="display:inline;opacity:1;fill:none;fill-opacity:1;fill-rule:evenodd;stroke:#000000;stroke-width:9.35213184;stroke-linecap:square;stroke-linejoin:round;stroke-miterlimit:4;stroke-dasharray:none;stroke-opacity:0.23404254;paint-order:markers fill stroke" />
      </g>
    </clipPath>
    <clipPath
       clipPathUnits="userSpaceOnUse"
       id="clipPath1310">
      <path
         id="path1312"
         d="M 66.861158,42.380501 A 26.131658,26.131658 0 0 1 40.729498,68.512161 26.131658,26.131658 0 0 1 14.597841,42.380501 26.131658,26.131658 0 0 1 40.729498,16.24884 26.131658,26.131658 0 0 1 66.861158,42.380501 Z"
         style="display:inline;opacity:1;fill:#e39bc2;fill-opacity:0.74901961;fill-rule:evenodd;stroke:none;stroke-width:3.7650001;stroke-linecap:square;stroke-linejoin:round;stroke-miterlimit:4;stroke-dasharray:none;stroke-opacity:0.23404254;paint-order:markers fill stroke" />
    </clipPath>
    <clipPath
       clipPathUnits="userSpaceOnUse"
       id="clipPath1322">
      <use
         x="0"
         y="0"
         xlink:href="#g1318"
         id="use1324"
         width="100%"
         height="100%" />
    </clipPath>
    <clipPath
       clipPathUnits="userSpaceOnUse"
       id="clipPath1369">
      <use
         x="0"
         y="0"
         xlink:href="#g1365"
         id="use1371"
         width="100%"
         height="100%" />
    </clipPath>
  </defs>
  <metadata
     id="metadata5">
    <rdf:RDF>
      <cc:Work
         rdf:about="">
        <dc:format>image/svg+xml</dc:format>
        <dc:type
           rdf:resource="http://purl.org/dc/dcmitype/StillImage" />
        <dc:title></dc:title>
      </cc:Work>
    </rdf:RDF>
  </metadata>
  <g
     id="layer3"
     style="display:none"
     transform="translate(-91.836287,-60.95234)">
    <rect
       style="opacity:1;fill:#484f76;fill-opacity:1;fill-rule:evenodd;stroke:none;stroke-width:0.06499999;stroke-linecap:square;stroke-linejoin:round;stroke-miterlimit:4;stroke-dasharray:none;stroke-opacity:1;paint-order:markers fill stroke"
       id="rect947"
       width="211.28181"
       height="40.07235"
       x="0.38484851"
       y="55.5625" />
  </g>
  <g
     id="layer4"
     style="display:none"
     transform="translate(-91.836287,-236.63567)">
    <g
       id="layer6"
       transform="translate(0,175.68333)">
      <path
         id="path1229"
         d="M 70.907203,43.922464 A 32.484225,32.484225 0 0 1 38.422978,76.406691 32.484225,32.484225 0 0 1 5.9387531,43.922464 32.484225,32.484225 0 0 1 38.422978,11.438237 32.484225,32.484225 0 0 1 70.907203,43.922464 Z"
         style="display:inline;opacity:1;fill:#e39bc2;fill-opacity:0.37234042;fill-rule:evenodd;stroke:none;stroke-width:3.76499987;stroke-linecap:square;stroke-linejoin:round;stroke-miterlimit:4;stroke-dasharray:none;stroke-opacity:0.23404254;paint-order:markers fill stroke" />
    </g>
    <g
       id="layer7">
      <path
         transform="matrix(1.2430985,0,0,1.2430985,-12.207804,166.92266)"
         style="display:inline;fill:#e39bc2;fill-opacity:1;stroke:none;stroke-width:0.21284181px;stroke-linecap:butt;stroke-linejoin:miter;stroke-opacity:1"
         d="M 16.463803,23.544015 V 76.881293 H 10.476965 V 23.544015 Z"
         id="path1244"
         clip-path="url(#clipPath1310)" />
      <g
         id="g1320"
         clip-path="url(#clipPath1322)"
         transform="matrix(1.2430985,0,0,1.2430985,-12.207804,-51.469023)"
         style="stroke-width:0.80444151">
        <g
           id="g1318"
           style="stroke-width:0.80444151">
          <image
             clip-path="url(#clipPath1303)"
             width="156.08556"
             height="156.08556"
             preserveAspectRatio="none"
             style="display:inline;opacity:1;stroke-width:2.97059083;image-rendering:optimizeQuality"
             id="image1227"
             x="66.282776"
             y="38.943359"
             transform="matrix(0.44067926,0,0,0.44067926,-22.871777,166.51047)"
             xlink:href="file:///home/lubeso/Documents/lubeso.github.io/pages/lk/img/luis-face.JPG" />
          <path
             transform="translate(0,175.68333)"
             style="display:inline;opacity:1;fill:none;fill-opacity:0.74901961;fill-rule:evenodd;stroke:none;stroke-width:3.02872229;stroke-linecap:square;stroke-linejoin:round;stroke-miterlimit:4;stroke-dasharray:none;stroke-opacity:0.23404254;paint-order:markers fill stroke"
             d="M 66.861159,42.3805 A 26.131658,26.131658 0 0 1 40.729499,68.51216 26.131658,26.131658 0 0 1 14.597841,42.3805 26.131658,26.131658 0 0 1 40.729499,16.24884 26.131658,26.131658 0 0 1 66.861159,42.3805 Z"
             id="path1229-7" />
        </g>
      </g>
    </g>
  </g>
  <g
     id="layer1"
     style="display:none;opacity:1"
     transform="translate(-91.836287,-262.70231)">
    <g
       id="layer9"
       style="display:inline">
      <path
         id="path1229-7-3"
         d="M 113.03248,245.67244 A 32.484225,32.484225 0 0 1 80.548266,278.15667 32.484225,32.484225 0 0 1 48.064037,245.67244 32.484225,32.484225 0 0 1 80.548266,213.18822 32.484225,32.484225 0 0 1 113.03248,245.67244 Z"
         style="display:inline;opacity:1;fill:#35d6df;fill-opacity:0.3244681;fill-rule:evenodd;stroke:none;stroke-width:3.7650001;stroke-linecap:square;stroke-linejoin:round;stroke-miterlimit:4;stroke-dasharray:none;stroke-opacity:0.23404254;paint-order:markers fill stroke" />
    </g>
    <g
       id="layer11"
       style="display:inline">
      <g
         id="g1367"
         clip-path="url(#clipPath1369)"
         transform="matrix(1.2430985,0,0,1.2430985,-12.207804,-57.805784)"
         style="stroke-width:0.80444151">
        <g
           id="g1365"
           style="stroke-width:0.80444151">
          <image
             y="36.366966"
             x="12.235698"
             id="image909"
             style="display:inline;opacity:1;fill:#8a408f;fill-opacity:1;stroke-width:2.96040511;image-rendering:optimizeQuality"
             preserveAspectRatio="none"
             height="239.48569"
             width="239.48569"
             clip-path="url(#clipPath1022)"
             transform="matrix(0.61483162,0,0,0.61483162,-5.7092351,163.68076)"
             xlink:href="file:///home/lubeso/Documents/lubeso.github.io/pages/lk/img/karyn-face.JPG" />
          <path
             style="display:inline;opacity:1;fill:none;fill-opacity:0.74901961;fill-rule:evenodd;stroke:none;stroke-width:3.02872229;stroke-linecap:square;stroke-linejoin:round;stroke-miterlimit:4;stroke-dasharray:none;stroke-opacity:0.23404254;paint-order:markers fill stroke"
             d="M 100.74849,244.13047 A 26.131658,26.131658 0 0 1 74.616837,270.26213 26.131658,26.131658 0 0 1 48.485179,244.13047 26.131658,26.131658 0 0 1 74.616837,217.99881 26.131658,26.131658 0 0 1 100.74849,244.13047 Z"
             id="path1229-7-5" />
        </g>
      </g>
    </g>
  </g>
  <g
     id="layer12"
     transform="translate(-91.836287,-262.70231)"
     style="display:none">
    <text
       xml:space="preserve"
       style="font-style:normal;font-weight:normal;font-size:25.39999962px;line-height:1.25;font-family:sans-serif;text-align:start;letter-spacing:0px;word-spacing:-7.1887269px;text-anchor:start;display:inline;opacity:1;fill:#ffffff;fill-opacity:1;stroke:none;stroke-width:0.26458332"
       x="128.66394"
       y="240.52238"
       id="text1376"><tspan
         id="tspan1374"
         x="128.66394"
         y="240.52238"
         style="font-style:normal;font-variant:normal;font-weight:300;font-stretch:normal;font-size:23.28333282px;font-family:'M+ 1c';-inkscape-font-specification:'M+ 1c Light';text-align:start;word-spacing:-7.1887269px;writing-mode:lr-tb;text-anchor:start;fill:#ffffff;fill-opacity:1;stroke-width:0.26458332">luis<tspan
   style="font-style:normal;font-variant:normal;font-weight:100;font-stretch:normal;font-size:23.28333282px;font-family:'M+ 1c';-inkscape-font-specification:'M+ 1c Thin';word-spacing:-7.1887269px;writing-mode:lr-tb;fill:#ffffff;fill-opacity:1"
   id="tspan1382"> &amp;</tspan>karyn</tspan><tspan
         x="128.66394"
         y="272.27237"
         style="font-style:normal;font-variant:normal;font-weight:300;font-stretch:normal;font-size:16.93333244px;font-family:'M+ 1c';-inkscape-font-specification:'M+ 1c Light';text-align:start;word-spacing:0px;writing-mode:lr-tb;text-anchor:start;fill:#ffffff;fill-opacity:1;stroke-width:0.26458332"
         id="tspan1421"
         dy="-12.539989 0 0 0 0 0 0 0 -2.4099998"><tspan
           style="font-style:normal;font-variant:normal;font-weight:100;font-stretch:normal;font-family:'M+ 1c';-inkscape-font-specification:'M+ 1c Thin'"
           id="tspan1430">for</tspan><tspan
           style="font-size:14.11111069px;word-spacing:-0.6693958px"
           id="tspan1419"> </tspan><tspan
           style="font-size:14.11111069px;letter-spacing:-1.71979177px;word-spacing:0px"
           id="tspan1427"
           dy="0 2.4099998"><tspan
   style="font-style:normal;font-variant:normal;font-weight:300;font-stretch:normal;font-family:'M+ 1c';-inkscape-font-specification:'M+ 1c Light'"
   id="tspan1422">UA</tspan>  </tspan><tspan
           style="font-style:normal;font-variant:normal;font-weight:100;font-stretch:normal;font-family:'M+ 1c';-inkscape-font-specification:'M+ 1c Thin'"
           id="tspan1432">pres+vp</tspan></tspan></text>
    <path
       style="fill:#ffffff;fill-opacity:0.15425535;stroke:none;stroke-width:0.26458332px;stroke-linecap:butt;stroke-linejoin:miter;stroke-opacity:1"
       d="M 0.38484849,202.32724 189.46064,218.29845 264.96818,263.1333 v -60.61363 z"
       id="path972" />
  </g>
  <circle
     r="70.405098"
     cy="-155.06651"
     cx="-108.53748"
     id="path1071"
     style="opacity:0.75;fill:none;fill-opacity:1;fill-rule:evenodd;stroke:none;stroke-width:0.065;stroke-linecap:square;stroke-linejoin:round;stroke-miterlimit:4;stroke-dasharray:none;stroke-opacity:1;paint-order:markers fill stroke" />
  <g
     id="text873"
     style="font-style:normal;font-weight:normal;font-size:40.1269455px;line-height:1.25;font-family:sans-serif;text-align:center;letter-spacing:0px;word-spacing:-12.04644394px;text-anchor:middle;display:inline;opacity:0.75;fill:#e39bc1;fill-opacity:1;stroke:none;stroke-width:0.26458332"
     transform="matrix(-1,0,0,1,-91.836287,-236.63567)"
     aria-label="L">
    <path
       id="path1844"
       style="font-style:normal;font-variant:normal;font-weight:normal;font-stretch:normal;font-family:'M+ 1m';-inkscape-font-specification:'M+ 1m';letter-spacing:-6.70036459px;fill:#e39bc1;fill-opacity:1;stroke-width:0.26458332"
       d="m -101.3865,236.63567 v 26.40353 h 9.550213 v 2.88914 h -12.840623 v -29.29267 z" />
  </g>
  <g
     transform="translate(-91.836287,-236.63567)"
     id="text877"
     style="font-style:normal;font-variant:normal;font-weight:normal;font-stretch:normal;font-size:40.1269455px;line-height:1.25;font-family:'M+ 1m';-inkscape-font-specification:'M+ 1m';text-align:center;letter-spacing:0px;word-spacing:-12.04644394px;text-anchor:middle;display:inline;opacity:0.75;fill:#36d5df;fill-opacity:1;stroke:none;stroke-width:0.26458332"
     aria-label="K">
    <path
       id="path1841"
       style="font-style:normal;font-variant:normal;font-weight:normal;font-stretch:normal;font-family:'M+ 1m';-inkscape-font-specification:'M+ 1m';fill:#36d5df;fill-opacity:1;stroke-width:0.26458332"
       d="m 107.85613,249.87757 h 0.0803 l 8.26616,-13.2419 h 3.81205 l -9.02856,14.04444 9.2292,15.24823 h -3.81206 l -8.46679,-14.4457 h -0.0803 v 14.4457 h -3.29041 v -29.29267 h 3.29041 z" />
  </g>
</svg>
